<mxfile host="app.diagrams.net" modified="2023-03-27T14:32:17.821Z" agent="Mozilla/5.0 (Windows NT 10.0; WOW64) AppleWebKit/537.36 (KHTML, like Gecko) Chrome/111.0.0.0 Safari/537.36" etag="nOQmHkKyEDGpkGLvemVo" version="21.1.1" type="github">
  <diagram name="Page-1" id="zRxrEcoFwJ111nlCs0Rk">
    <mxGraphModel dx="1120" dy="456" grid="1" gridSize="10" guides="1" tooltips="1" connect="1" arrows="1" fold="1" page="1" pageScale="1" pageWidth="850" pageHeight="1100" math="0" shadow="0">
      <root>
        <mxCell id="0" />
        <mxCell id="1" parent="0" />
        <mxCell id="MRslgTs9-tC0-FGzWkB--1" value="" style="ellipse;html=1;shape=startState;fillColor=#000000;strokeColor=#ff0000;" vertex="1" parent="1">
          <mxGeometry x="120" y="100" width="30" height="30" as="geometry" />
        </mxCell>
        <mxCell id="MRslgTs9-tC0-FGzWkB--2" value="" style="edgeStyle=orthogonalEdgeStyle;html=1;verticalAlign=bottom;endArrow=open;endSize=8;strokeColor=#ff0000;rounded=0;entryX=0;entryY=0.5;entryDx=0;entryDy=0;" edge="1" source="MRslgTs9-tC0-FGzWkB--1" parent="1" target="MRslgTs9-tC0-FGzWkB--4">
          <mxGeometry relative="1" as="geometry">
            <mxPoint x="170" y="115" as="targetPoint" />
          </mxGeometry>
        </mxCell>
        <mxCell id="MRslgTs9-tC0-FGzWkB--6" style="edgeStyle=orthogonalEdgeStyle;rounded=0;orthogonalLoop=1;jettySize=auto;html=1;" edge="1" parent="1" source="MRslgTs9-tC0-FGzWkB--4" target="MRslgTs9-tC0-FGzWkB--5">
          <mxGeometry relative="1" as="geometry" />
        </mxCell>
        <mxCell id="MRslgTs9-tC0-FGzWkB--4" value="home" style="html=1;whiteSpace=wrap;" vertex="1" parent="1">
          <mxGeometry x="180" y="90" width="110" height="50" as="geometry" />
        </mxCell>
        <mxCell id="MRslgTs9-tC0-FGzWkB--8" style="edgeStyle=orthogonalEdgeStyle;rounded=0;orthogonalLoop=1;jettySize=auto;html=1;entryX=0.5;entryY=1;entryDx=0;entryDy=0;exitX=0.5;exitY=1;exitDx=0;exitDy=0;" edge="1" parent="1" source="MRslgTs9-tC0-FGzWkB--10" target="MRslgTs9-tC0-FGzWkB--4">
          <mxGeometry relative="1" as="geometry">
            <mxPoint x="500" y="160" as="sourcePoint" />
            <Array as="points">
              <mxPoint x="550" y="140" />
              <mxPoint x="550" y="160" />
              <mxPoint x="235" y="160" />
            </Array>
          </mxGeometry>
        </mxCell>
        <mxCell id="MRslgTs9-tC0-FGzWkB--11" style="edgeStyle=orthogonalEdgeStyle;rounded=0;orthogonalLoop=1;jettySize=auto;html=1;entryX=0;entryY=0.5;entryDx=0;entryDy=0;" edge="1" parent="1" source="MRslgTs9-tC0-FGzWkB--5" target="MRslgTs9-tC0-FGzWkB--10">
          <mxGeometry relative="1" as="geometry" />
        </mxCell>
        <mxCell id="MRslgTs9-tC0-FGzWkB--5" value="Signup" style="html=1;whiteSpace=wrap;" vertex="1" parent="1">
          <mxGeometry x="360" y="90" width="110" height="50" as="geometry" />
        </mxCell>
        <mxCell id="MRslgTs9-tC0-FGzWkB--7" value="provide registration info" style="text;html=1;align=center;verticalAlign=middle;resizable=0;points=[];autosize=1;strokeColor=none;fillColor=none;" vertex="1" parent="1">
          <mxGeometry x="245" y="60" width="150" height="30" as="geometry" />
        </mxCell>
        <mxCell id="MRslgTs9-tC0-FGzWkB--9" value="not verified" style="text;html=1;align=center;verticalAlign=middle;resizable=0;points=[];autosize=1;strokeColor=none;fillColor=none;" vertex="1" parent="1">
          <mxGeometry x="410" y="160" width="80" height="30" as="geometry" />
        </mxCell>
        <mxCell id="MRslgTs9-tC0-FGzWkB--15" value="" style="edgeStyle=orthogonalEdgeStyle;rounded=0;orthogonalLoop=1;jettySize=auto;html=1;entryX=1;entryY=0.5;entryDx=0;entryDy=0;" edge="1" parent="1" source="MRslgTs9-tC0-FGzWkB--10" target="MRslgTs9-tC0-FGzWkB--22">
          <mxGeometry relative="1" as="geometry">
            <mxPoint x="660" y="115" as="targetPoint" />
            <Array as="points">
              <mxPoint x="590" y="225" />
            </Array>
          </mxGeometry>
        </mxCell>
        <mxCell id="MRslgTs9-tC0-FGzWkB--10" value="verify otp" style="html=1;whiteSpace=wrap;" vertex="1" parent="1">
          <mxGeometry x="510" y="90" width="110" height="50" as="geometry" />
        </mxCell>
        <mxCell id="MRslgTs9-tC0-FGzWkB--12" value="Otp send&amp;nbsp;" style="text;html=1;align=center;verticalAlign=middle;resizable=0;points=[];autosize=1;strokeColor=none;fillColor=none;" vertex="1" parent="1">
          <mxGeometry x="470" y="60" width="80" height="30" as="geometry" />
        </mxCell>
        <mxCell id="MRslgTs9-tC0-FGzWkB--16" value="verified" style="text;html=1;align=center;verticalAlign=middle;resizable=0;points=[];autosize=1;strokeColor=none;fillColor=none;" vertex="1" parent="1">
          <mxGeometry x="560" y="190" width="60" height="30" as="geometry" />
        </mxCell>
        <mxCell id="MRslgTs9-tC0-FGzWkB--19" value="" style="ellipse;html=1;shape=startState;fillColor=#000000;strokeColor=#ff0000;" vertex="1" parent="1">
          <mxGeometry x="120" y="210" width="30" height="30" as="geometry" />
        </mxCell>
        <mxCell id="MRslgTs9-tC0-FGzWkB--20" value="" style="edgeStyle=orthogonalEdgeStyle;html=1;verticalAlign=bottom;endArrow=open;endSize=8;strokeColor=#ff0000;rounded=0;exitX=1;exitY=0.5;exitDx=0;exitDy=0;" edge="1" parent="1" source="MRslgTs9-tC0-FGzWkB--19">
          <mxGeometry relative="1" as="geometry">
            <mxPoint x="180" y="230" as="targetPoint" />
            <mxPoint x="160" y="125" as="sourcePoint" />
            <Array as="points">
              <mxPoint x="160" y="225" />
              <mxPoint x="160" y="230" />
            </Array>
          </mxGeometry>
        </mxCell>
        <mxCell id="MRslgTs9-tC0-FGzWkB--23" value="" style="edgeStyle=orthogonalEdgeStyle;rounded=0;orthogonalLoop=1;jettySize=auto;html=1;" edge="1" parent="1" source="MRslgTs9-tC0-FGzWkB--21" target="MRslgTs9-tC0-FGzWkB--22">
          <mxGeometry relative="1" as="geometry" />
        </mxCell>
        <mxCell id="MRslgTs9-tC0-FGzWkB--21" value="login" style="html=1;whiteSpace=wrap;" vertex="1" parent="1">
          <mxGeometry x="190" y="200" width="110" height="50" as="geometry" />
        </mxCell>
        <mxCell id="MRslgTs9-tC0-FGzWkB--28" style="edgeStyle=orthogonalEdgeStyle;rounded=0;orthogonalLoop=1;jettySize=auto;html=1;exitX=0.25;exitY=1;exitDx=0;exitDy=0;entryX=1;entryY=0.5;entryDx=0;entryDy=0;" edge="1" parent="1" source="MRslgTs9-tC0-FGzWkB--22" target="MRslgTs9-tC0-FGzWkB--25">
          <mxGeometry relative="1" as="geometry" />
        </mxCell>
        <mxCell id="MRslgTs9-tC0-FGzWkB--30" style="edgeStyle=orthogonalEdgeStyle;rounded=0;orthogonalLoop=1;jettySize=auto;html=1;exitX=0.5;exitY=1;exitDx=0;exitDy=0;entryX=0;entryY=0.5;entryDx=0;entryDy=0;" edge="1" parent="1" source="MRslgTs9-tC0-FGzWkB--22" target="MRslgTs9-tC0-FGzWkB--26">
          <mxGeometry relative="1" as="geometry" />
        </mxCell>
        <mxCell id="MRslgTs9-tC0-FGzWkB--22" value="user logged in" style="html=1;whiteSpace=wrap;" vertex="1" parent="1">
          <mxGeometry x="360" y="200" width="110" height="50" as="geometry" />
        </mxCell>
        <mxCell id="MRslgTs9-tC0-FGzWkB--24" value="provide login credentials" style="text;html=1;align=center;verticalAlign=middle;resizable=0;points=[];autosize=1;strokeColor=none;fillColor=none;" vertex="1" parent="1">
          <mxGeometry x="240" y="180" width="150" height="30" as="geometry" />
        </mxCell>
        <mxCell id="MRslgTs9-tC0-FGzWkB--32" style="edgeStyle=orthogonalEdgeStyle;rounded=0;orthogonalLoop=1;jettySize=auto;html=1;entryX=0.5;entryY=0;entryDx=0;entryDy=0;" edge="1" parent="1" source="MRslgTs9-tC0-FGzWkB--25" target="MRslgTs9-tC0-FGzWkB--27">
          <mxGeometry relative="1" as="geometry" />
        </mxCell>
        <mxCell id="MRslgTs9-tC0-FGzWkB--34" style="edgeStyle=orthogonalEdgeStyle;rounded=0;orthogonalLoop=1;jettySize=auto;html=1;" edge="1" parent="1" source="MRslgTs9-tC0-FGzWkB--25" target="MRslgTs9-tC0-FGzWkB--33">
          <mxGeometry relative="1" as="geometry" />
        </mxCell>
        <mxCell id="MRslgTs9-tC0-FGzWkB--25" value="user profile" style="html=1;whiteSpace=wrap;" vertex="1" parent="1">
          <mxGeometry x="180" y="290" width="110" height="50" as="geometry" />
        </mxCell>
        <mxCell id="MRslgTs9-tC0-FGzWkB--46" style="edgeStyle=orthogonalEdgeStyle;rounded=0;orthogonalLoop=1;jettySize=auto;html=1;" edge="1" parent="1" source="MRslgTs9-tC0-FGzWkB--26" target="MRslgTs9-tC0-FGzWkB--43">
          <mxGeometry relative="1" as="geometry" />
        </mxCell>
        <mxCell id="MRslgTs9-tC0-FGzWkB--26" value="doctor profile" style="html=1;whiteSpace=wrap;" vertex="1" parent="1">
          <mxGeometry x="490" y="290" width="110" height="50" as="geometry" />
        </mxCell>
        <mxCell id="MRslgTs9-tC0-FGzWkB--39" style="edgeStyle=orthogonalEdgeStyle;rounded=0;orthogonalLoop=1;jettySize=auto;html=1;entryX=0.5;entryY=0;entryDx=0;entryDy=0;" edge="1" parent="1" source="MRslgTs9-tC0-FGzWkB--27" target="MRslgTs9-tC0-FGzWkB--38">
          <mxGeometry relative="1" as="geometry" />
        </mxCell>
        <mxCell id="MRslgTs9-tC0-FGzWkB--27" value="create patient" style="html=1;whiteSpace=wrap;" vertex="1" parent="1">
          <mxGeometry x="120" y="400" width="110" height="30" as="geometry" />
        </mxCell>
        <mxCell id="MRslgTs9-tC0-FGzWkB--29" value="login as a user" style="text;html=1;align=center;verticalAlign=middle;resizable=0;points=[];autosize=1;strokeColor=none;fillColor=none;" vertex="1" parent="1">
          <mxGeometry x="290" y="265" width="100" height="30" as="geometry" />
        </mxCell>
        <mxCell id="MRslgTs9-tC0-FGzWkB--31" value="login as a&amp;nbsp; doctor" style="text;html=1;align=center;verticalAlign=middle;resizable=0;points=[];autosize=1;strokeColor=none;fillColor=none;" vertex="1" parent="1">
          <mxGeometry x="410" y="260" width="110" height="30" as="geometry" />
        </mxCell>
        <mxCell id="MRslgTs9-tC0-FGzWkB--44" style="edgeStyle=orthogonalEdgeStyle;rounded=0;orthogonalLoop=1;jettySize=auto;html=1;" edge="1" parent="1" source="MRslgTs9-tC0-FGzWkB--33" target="MRslgTs9-tC0-FGzWkB--43">
          <mxGeometry relative="1" as="geometry">
            <Array as="points">
              <mxPoint x="410" y="415" />
              <mxPoint x="410" y="405" />
            </Array>
          </mxGeometry>
        </mxCell>
        <mxCell id="MRslgTs9-tC0-FGzWkB--56" style="edgeStyle=orthogonalEdgeStyle;rounded=0;orthogonalLoop=1;jettySize=auto;html=1;exitX=0.5;exitY=1;exitDx=0;exitDy=0;entryX=0.5;entryY=0;entryDx=0;entryDy=0;" edge="1" parent="1" source="MRslgTs9-tC0-FGzWkB--33" target="MRslgTs9-tC0-FGzWkB--51">
          <mxGeometry relative="1" as="geometry" />
        </mxCell>
        <mxCell id="MRslgTs9-tC0-FGzWkB--33" value="send request" style="html=1;whiteSpace=wrap;" vertex="1" parent="1">
          <mxGeometry x="240" y="400" width="110" height="30" as="geometry" />
        </mxCell>
        <mxCell id="MRslgTs9-tC0-FGzWkB--36" value="chooses create patient" style="text;html=1;align=center;verticalAlign=middle;resizable=0;points=[];autosize=1;strokeColor=none;fillColor=none;" vertex="1" parent="1">
          <mxGeometry x="100" y="345" width="140" height="30" as="geometry" />
        </mxCell>
        <mxCell id="MRslgTs9-tC0-FGzWkB--37" value="chooses send request" style="text;html=1;align=center;verticalAlign=middle;resizable=0;points=[];autosize=1;strokeColor=none;fillColor=none;" vertex="1" parent="1">
          <mxGeometry x="230" y="345" width="140" height="30" as="geometry" />
        </mxCell>
        <mxCell id="MRslgTs9-tC0-FGzWkB--42" style="edgeStyle=orthogonalEdgeStyle;rounded=0;orthogonalLoop=1;jettySize=auto;html=1;entryX=0;entryY=0.25;entryDx=0;entryDy=0;" edge="1" parent="1" source="MRslgTs9-tC0-FGzWkB--38" target="MRslgTs9-tC0-FGzWkB--25">
          <mxGeometry relative="1" as="geometry">
            <Array as="points">
              <mxPoint x="100" y="495" />
              <mxPoint x="100" y="303" />
            </Array>
          </mxGeometry>
        </mxCell>
        <mxCell id="MRslgTs9-tC0-FGzWkB--38" value="patient id is provided" style="html=1;whiteSpace=wrap;" vertex="1" parent="1">
          <mxGeometry x="120" y="480" width="110" height="30" as="geometry" />
        </mxCell>
        <mxCell id="MRslgTs9-tC0-FGzWkB--40" value="patient information given" style="text;html=1;align=center;verticalAlign=middle;resizable=0;points=[];autosize=1;strokeColor=none;fillColor=none;" vertex="1" parent="1">
          <mxGeometry x="100" y="440" width="150" height="30" as="geometry" />
        </mxCell>
        <mxCell id="MRslgTs9-tC0-FGzWkB--49" value="" style="edgeStyle=orthogonalEdgeStyle;rounded=0;orthogonalLoop=1;jettySize=auto;html=1;" edge="1" parent="1" source="MRslgTs9-tC0-FGzWkB--43" target="MRslgTs9-tC0-FGzWkB--48">
          <mxGeometry relative="1" as="geometry" />
        </mxCell>
        <mxCell id="MRslgTs9-tC0-FGzWkB--54" style="edgeStyle=orthogonalEdgeStyle;rounded=0;orthogonalLoop=1;jettySize=auto;html=1;exitX=1;exitY=0.25;exitDx=0;exitDy=0;" edge="1" parent="1" source="MRslgTs9-tC0-FGzWkB--43" target="MRslgTs9-tC0-FGzWkB--51">
          <mxGeometry relative="1" as="geometry">
            <Array as="points">
              <mxPoint x="570" y="398" />
              <mxPoint x="570" y="560" />
              <mxPoint x="320" y="560" />
            </Array>
          </mxGeometry>
        </mxCell>
        <mxCell id="MRslgTs9-tC0-FGzWkB--43" value="view requests" style="html=1;whiteSpace=wrap;" vertex="1" parent="1">
          <mxGeometry x="440" y="390" width="110" height="30" as="geometry" />
        </mxCell>
        <mxCell id="MRslgTs9-tC0-FGzWkB--45" value="request send to doctor" style="text;html=1;align=center;verticalAlign=middle;resizable=0;points=[];autosize=1;strokeColor=none;fillColor=none;" vertex="1" parent="1">
          <mxGeometry x="320" y="435" width="140" height="30" as="geometry" />
        </mxCell>
        <mxCell id="MRslgTs9-tC0-FGzWkB--47" value="request page is shown" style="text;html=1;align=center;verticalAlign=middle;resizable=0;points=[];autosize=1;strokeColor=none;fillColor=none;" vertex="1" parent="1">
          <mxGeometry x="390" y="335" width="140" height="30" as="geometry" />
        </mxCell>
        <mxCell id="MRslgTs9-tC0-FGzWkB--52" style="edgeStyle=orthogonalEdgeStyle;rounded=0;orthogonalLoop=1;jettySize=auto;html=1;entryX=0.5;entryY=1;entryDx=0;entryDy=0;" edge="1" parent="1" source="MRslgTs9-tC0-FGzWkB--48" target="MRslgTs9-tC0-FGzWkB--51">
          <mxGeometry relative="1" as="geometry">
            <Array as="points">
              <mxPoint x="480" y="540" />
              <mxPoint x="335" y="540" />
            </Array>
          </mxGeometry>
        </mxCell>
        <mxCell id="MRslgTs9-tC0-FGzWkB--58" style="edgeStyle=orthogonalEdgeStyle;rounded=0;orthogonalLoop=1;jettySize=auto;html=1;entryX=0.5;entryY=1;entryDx=0;entryDy=0;" edge="1" parent="1" source="MRslgTs9-tC0-FGzWkB--48" target="MRslgTs9-tC0-FGzWkB--57">
          <mxGeometry relative="1" as="geometry">
            <Array as="points">
              <mxPoint x="520" y="620" />
              <mxPoint x="230" y="620" />
            </Array>
          </mxGeometry>
        </mxCell>
        <mxCell id="MRslgTs9-tC0-FGzWkB--48" value="schedule meeting" style="html=1;whiteSpace=wrap;" vertex="1" parent="1">
          <mxGeometry x="440" y="480" width="110" height="30" as="geometry" />
        </mxCell>
        <mxCell id="MRslgTs9-tC0-FGzWkB--50" value="request accepted" style="text;html=1;align=center;verticalAlign=middle;resizable=0;points=[];autosize=1;strokeColor=none;fillColor=none;" vertex="1" parent="1">
          <mxGeometry x="435" y="420" width="120" height="30" as="geometry" />
        </mxCell>
        <mxCell id="MRslgTs9-tC0-FGzWkB--60" style="edgeStyle=orthogonalEdgeStyle;rounded=0;orthogonalLoop=1;jettySize=auto;html=1;" edge="1" parent="1" source="MRslgTs9-tC0-FGzWkB--51" target="MRslgTs9-tC0-FGzWkB--57">
          <mxGeometry relative="1" as="geometry">
            <Array as="points">
              <mxPoint x="250" y="510" />
            </Array>
          </mxGeometry>
        </mxCell>
        <mxCell id="MRslgTs9-tC0-FGzWkB--51" value="view response" style="whiteSpace=wrap;html=1;" vertex="1" parent="1">
          <mxGeometry x="290" y="490" width="90" height="30" as="geometry" />
        </mxCell>
        <mxCell id="MRslgTs9-tC0-FGzWkB--53" value="send response" style="text;html=1;align=center;verticalAlign=middle;resizable=0;points=[];autosize=1;strokeColor=none;fillColor=none;" vertex="1" parent="1">
          <mxGeometry x="350" y="515" width="100" height="30" as="geometry" />
        </mxCell>
        <mxCell id="MRslgTs9-tC0-FGzWkB--55" value="request declined" style="text;html=1;align=center;verticalAlign=middle;resizable=0;points=[];autosize=1;strokeColor=none;fillColor=none;" vertex="1" parent="1">
          <mxGeometry x="380" y="570" width="110" height="30" as="geometry" />
        </mxCell>
        <mxCell id="MRslgTs9-tC0-FGzWkB--62" style="edgeStyle=orthogonalEdgeStyle;rounded=0;orthogonalLoop=1;jettySize=auto;html=1;" edge="1" parent="1" source="MRslgTs9-tC0-FGzWkB--57">
          <mxGeometry relative="1" as="geometry">
            <mxPoint x="140" y="640" as="targetPoint" />
          </mxGeometry>
        </mxCell>
        <mxCell id="MRslgTs9-tC0-FGzWkB--57" value="join meeting" style="whiteSpace=wrap;html=1;" vertex="1" parent="1">
          <mxGeometry x="170" y="560" width="120" height="40" as="geometry" />
        </mxCell>
        <mxCell id="MRslgTs9-tC0-FGzWkB--59" value="join meeting at the scheduled time" style="text;html=1;align=center;verticalAlign=middle;resizable=0;points=[];autosize=1;strokeColor=none;fillColor=none;" vertex="1" parent="1">
          <mxGeometry x="330" y="620" width="210" height="30" as="geometry" />
        </mxCell>
        <mxCell id="MRslgTs9-tC0-FGzWkB--61" value="" style="ellipse;html=1;shape=endState;fillColor=#000000;strokeColor=#ff0000;" vertex="1" parent="1">
          <mxGeometry x="130" y="640" width="30" height="30" as="geometry" />
        </mxCell>
      </root>
    </mxGraphModel>
  </diagram>
</mxfile>
